<svg width="333" height="383" viewBox="0 0 333 383" fill="none" xmlns="http://www.w3.org/2000/svg">
<g filter="url(#filter0_d_20_5554)">
<path d="M18.598 228.799L23.0309 236.622L30.8807 232.296L26.5402 224.381L18.598 228.799Z" fill="#595959"/>
<path d="M23.0309 236.622L27.3714 244.537L35.3136 240.119L30.8807 232.296L23.0309 236.622Z" fill="#595959"/>
<path d="M26.5402 224.382L30.8807 232.297L38.9153 227.879L34.4824 219.964L26.5402 224.382Z" fill="#595959"/>
<path d="M35.2716 240.052L27.369 244.448L31.7802 252.324L39.6828 247.928L35.2716 240.052Z" fill="#595959"/>
<path d="M30.8807 232.297L35.3136 240.12L43.2558 235.702L38.9153 227.879L30.8807 232.297Z" fill="#595959"/>
<path d="M34.4825 219.963L38.9153 227.878L46.7652 223.46L42.4247 215.545L34.4825 219.963Z" fill="#595959"/>
<path d="M43.186 235.65L35.2833 240.046L39.6945 247.921L47.5971 243.525L43.186 235.65Z" fill="#595959"/>
<path d="M38.9153 227.88L43.2559 235.703L51.1981 231.377L46.7652 223.462L38.9153 227.88Z" fill="#595959"/>
<path d="M39.7465 248.034L44.087 255.949L52.1215 251.439L47.6887 243.616L39.7465 248.034Z" fill="#595959"/>
<path d="M43.2558 235.703L47.6887 243.618L55.6309 239.2L51.198 231.377L43.2558 235.703Z" fill="#595959"/>
<path d="M54.6425 219.039L46.7399 223.436L51.1511 231.311L59.0537 226.915L54.6425 219.039Z" fill="#595959"/>
<path d="M47.6887 243.617L52.1215 251.44L59.9714 247.114L55.6309 239.199L47.6887 243.617Z" fill="#595959"/>
<path d="M51.198 231.376L55.6309 239.199L63.4807 234.781L59.1402 226.958L51.198 231.376Z" fill="#595959"/>
<path d="M55.6309 239.199L59.9714 247.114L67.9136 242.696L63.4807 234.781L55.6309 239.199Z" fill="#595959"/>
<path d="M59.1403 226.959L63.4808 234.782L71.423 230.456L66.9901 222.541L59.1403 226.959Z" fill="#595959"/>
<path d="M59.9714 247.113L64.4042 254.936L72.3464 250.61L67.9136 242.695L59.9714 247.113Z" fill="#595959"/>
<path d="M63.4807 234.782L67.9136 242.697L75.8558 238.279L71.4229 230.456L63.4807 234.782Z" fill="#595959"/>
<path d="M67.9136 242.696L72.3464 250.611L80.1963 246.193L75.8558 238.278L67.9136 242.696Z" fill="#595959"/>
<path d="M71.4229 230.455L75.8558 238.278L83.7056 233.952L79.3651 226.037L71.4229 230.455Z" fill="#595959"/>
<path d="M72.3464 250.611L76.6869 258.434L84.6292 254.108L80.1963 246.193L72.3464 250.611Z" fill="#595959"/>
<path d="M75.8558 238.278L80.1963 246.193L88.1385 241.775L83.7056 233.952L75.8558 238.278Z" fill="#595959"/>
<path d="M79.3651 226.038L83.7056 233.953L91.6478 229.535L87.215 221.62L79.3651 226.038Z" fill="#595959"/>
<path d="M88.1178 241.702L80.2152 246.098L84.6264 253.973L92.529 249.577L88.1178 241.702Z" fill="#595959"/>
<path d="M83.7057 233.953L88.1386 241.776L96.0808 237.45L91.6479 229.535L83.7057 233.953Z" fill="#595959"/>
<path d="M84.6292 254.109L89.0621 261.932L96.9119 257.514L92.5714 249.691L84.6292 254.109Z" fill="#595959"/>
<path d="M88.1385 241.776L92.5714 249.691L100.421 245.273L96.0808 237.45L88.1385 241.776Z" fill="#595959"/>
<path d="M91.6478 229.535L96.0807 237.45L103.931 233.032L99.4977 225.117L91.6478 229.535Z" fill="#595959"/>
<path d="M92.5714 249.691L96.9119 257.514L104.854 253.188L100.421 245.273L92.5714 249.691Z" fill="#595959"/>
<path d="M96.0807 237.45L100.421 245.273L108.363 240.855L103.931 233.032L96.0807 237.45Z" fill="#595959"/>
<path d="M96.9119 257.513L101.345 265.428L109.287 261.01L104.854 253.188L96.9119 257.513Z" fill="#595959"/>
<path d="M108.375 240.83L100.473 245.227L104.884 253.102L112.787 248.706L108.375 240.83Z" fill="#595959"/>
<path d="M103.931 233.033L108.363 240.856L116.213 236.53L111.873 228.615L103.931 233.033Z" fill="#595959"/>
<path d="M104.854 253.188L109.287 261.011L117.137 256.686L112.796 248.771L104.854 253.188Z" fill="#595959"/>
<path d="M108.363 240.855L112.796 248.77L120.646 244.352L116.213 236.529L108.363 240.855Z" fill="#595959"/>
<path d="M109.287 261.011L113.628 268.926L121.57 264.509L117.137 256.686L109.287 261.011Z" fill="#595959"/>
<path d="M112.796 248.77L117.137 256.685L125.079 252.268L120.646 244.353L112.796 248.77Z" fill="#595959"/>
<path d="M116.213 236.53L120.646 244.353L128.588 240.027L124.156 232.112L116.213 236.53Z" fill="#595959"/>
<path d="M117.137 256.685L121.57 264.508L129.512 260.183L125.079 252.268L117.137 256.685Z" fill="#595959"/>
<path d="M120.646 244.353L125.079 252.268L132.929 247.85L128.588 240.027L120.646 244.353Z" fill="#595959"/>
<path d="M121.57 264.508L126.003 272.423L133.852 268.006L129.512 260.183L121.57 264.508Z" fill="#595959"/>
<path d="M124.156 232.112L128.588 240.027L136.438 235.609L132.098 227.694L124.156 232.112Z" fill="#595959"/>
<path d="M125.079 252.268L129.512 260.183L137.362 255.766L132.929 247.851L125.079 252.268Z" fill="#595959"/>
<path d="M126.003 272.424L130.343 280.247L138.285 275.921L133.852 268.006L126.003 272.424Z" fill="#595959"/>
<path d="M128.588 240.027L132.929 247.85L140.871 243.524L136.438 235.609L128.588 240.027Z" fill="#595959"/>
<path d="M129.512 260.183L133.852 268.006L141.795 263.589L137.362 255.766L129.512 260.183Z" fill="#595959"/>
<path d="M132.098 227.695L136.438 235.61L144.38 231.192L139.948 223.369L132.098 227.695Z" fill="#595959"/>
<path d="M132.929 247.85L137.362 255.765L145.304 251.347L140.871 243.524L132.929 247.85Z" fill="#595959"/>
<path d="M141.758 263.584L133.856 267.98L138.267 275.856L146.17 271.46L141.758 263.584Z" fill="#595959"/>
<path d="M144.333 231.187L136.431 235.583L140.842 243.459L148.745 239.062L144.333 231.187Z" fill="#595959"/>
<path d="M137.362 255.764L141.795 263.587L149.645 259.262L145.304 251.347L137.362 255.764Z" fill="#595959"/>
<path d="M138.285 275.921L142.718 283.744L150.568 279.418L146.227 271.503L138.285 275.921Z" fill="#595959"/>
<path d="M139.948 223.369L144.38 231.192L152.323 226.866L147.89 218.951L139.948 223.369Z" fill="#595959"/>
<path d="M140.871 243.525L145.304 251.348L153.154 246.93L148.813 239.107L140.871 243.525Z" fill="#595959"/>
<path d="M141.795 263.588L146.227 271.503L154.077 267.086L149.644 259.263L141.795 263.588Z" fill="#595959"/>
<path d="M144.38 231.192L148.813 239.107L156.663 234.689L152.323 226.866L144.38 231.192Z" fill="#595959"/>
<path d="M145.304 251.347L149.644 259.262L157.587 254.845L153.154 246.93L145.304 251.347Z" fill="#595959"/>
<path d="M146.228 271.504L150.568 279.419L158.51 275.001L154.077 267.086L146.228 271.504Z" fill="#595959"/>
<path d="M147.89 218.952L152.323 226.867L160.172 222.449L155.74 214.534L147.89 218.952Z" fill="#595959"/>
<path d="M148.813 239.106L153.154 246.929L161.096 242.603L156.663 234.688L148.813 239.106Z" fill="#595959"/>
<path d="M149.644 259.262L154.077 267.085L162.019 262.76L157.587 254.845L149.644 259.262Z" fill="#595959"/>
<path d="M152.323 226.867L156.663 234.69L164.605 230.272L160.172 222.449L152.323 226.867Z" fill="#595959"/>
<path d="M153.154 246.929L157.587 254.844L165.529 250.426L161.096 242.604L153.154 246.929Z" fill="#595959"/>
<path d="M154.077 267.085L158.51 275L166.36 270.583L162.02 262.76L154.077 267.085Z" fill="#595959"/>
<path d="M164.591 230.224L156.688 234.62L161.099 242.496L169.002 238.1L164.591 230.224Z" fill="#595959"/>
<path d="M157.587 254.845L162.02 262.76L169.869 258.343L165.529 250.428L157.587 254.845Z" fill="#595959"/>
<path d="M160.172 222.448L164.605 230.271L172.455 225.945L168.115 218.03L160.172 222.448Z" fill="#595959"/>
<path d="M161.096 242.604L165.529 250.427L173.379 246.102L169.038 238.187L161.096 242.604Z" fill="#595959"/>
<path d="M162.02 262.76L166.36 270.583L174.302 266.258L169.869 258.343L162.02 262.76Z" fill="#595959"/>
<path d="M164.605 230.271L169.038 238.186L176.888 233.768L172.455 225.945L164.605 230.271Z" fill="#595959"/>
<path d="M165.529 250.427L169.869 258.342L177.812 253.925L173.379 246.102L165.529 250.427Z" fill="#595959"/>
<path d="M169.038 238.187L173.379 246.102L181.321 241.685L176.888 233.77L169.038 238.187Z" fill="#595959"/>
<path d="M177.809 253.849L169.906 258.245L174.317 266.121L182.22 261.725L177.809 253.849Z" fill="#595959"/>
<path d="M173.379 246.102L177.812 253.925L185.754 249.6L181.321 241.685L173.379 246.102Z" fill="#595959"/>
<path d="M177.812 253.925L182.245 261.84L190.094 257.423L185.754 249.6L177.812 253.925Z" fill="#595959"/>
<path d="M332.5 99.2129H323.45V108.232H332.5V99.2129Z" fill="#E86526"/>
<path d="M332.5 90.1943H323.45V99.2138H332.5V90.1943Z" fill="#E86526"/>
<path d="M323.45 99.2129H314.399V108.232H323.45V99.2129Z" fill="#E86526"/>
<path d="M323.45 90.1943H314.399V99.2138H323.45V90.1943Z" fill="#E86526"/>
<path d="M314.399 99.2129H305.349V108.232H314.399V99.2129Z" fill="#E86526"/>
<path d="M314.399 90.1943H305.349V99.2138H314.399V90.1943Z" fill="#E86526"/>
<path d="M305.349 99.2129H296.298V108.232H305.349V99.2129Z" fill="#E86526"/>
<path d="M305.349 90.1943H296.298V99.2138H305.349V90.1943Z" fill="#E86526"/>
<path d="M296.298 99.2129H287.248V108.232H296.298V99.2129Z" fill="#E86526"/>
<path d="M296.298 90.1943H287.248V99.2138H296.298V90.1943Z" fill="#E86526"/>
<path d="M287.248 144.403H278.197V153.423H287.248V144.403Z" fill="#595959"/>
<path d="M287.248 135.384H278.197V144.403H287.248V135.384Z" fill="#595959"/>
<path d="M287.248 126.272H278.197V135.384H287.248V126.272Z" fill="#595959"/>
<path d="M287.248 117.253H278.197V126.272H287.248V117.253Z" fill="#E1DBD4"/>
<path d="M287.248 108.233H278.197V117.253H287.248V108.233Z" fill="#E1DBD4"/>
<path d="M287.248 99.2129H278.197V108.232H287.248V99.2129Z" fill="#E86526"/>
<path d="M287.248 90.1943H278.197V99.2138H287.248V90.1943Z" fill="#E86526"/>
<path d="M287.248 81.1748H278.197V90.1942H287.248V81.1748Z" fill="#E86526"/>
<path d="M287.248 72.1553H278.197V81.1747H287.248V72.1553Z" fill="#E86526"/>
<path d="M287.248 63.1367H278.197V72.1561H287.248V63.1367Z" fill="#E86526"/>
<path d="M287.248 54.1162H278.197V63.1356H287.248V54.1162Z" fill="#E86526"/>
<path d="M287.248 45.0967H278.197V54.1161H287.248V45.0967Z" fill="#E86526"/>
<path d="M287.248 36.0781H278.197V45.0976H287.248V36.0781Z" fill="#E86526"/>
<path d="M287.248 27.0586H278.197V36.078H287.248V27.0586Z" fill="#E86526"/>
<path d="M287.248 18.0381H278.197V27.0575H287.248V18.0381Z" fill="#E86526"/>
<path d="M287.248 9.01953H278.197V18.039H287.248V9.01953Z" fill="#E86526"/>
<path d="M278.197 162.441H269.147V171.461H278.197V162.441Z" fill="#595959"/>
<path d="M278.197 153.422H269.147V162.441H278.197V153.422Z" fill="#595959"/>
<path d="M278.197 144.403H269.147V153.423H278.197V144.403Z" fill="#595959"/>
<path d="M278.197 135.384H269.147V144.403H278.197V135.384Z" fill="#595959"/>
<path d="M278.197 126.272H269.147V135.384H278.197V126.272Z" fill="#595959"/>
<path d="M278.197 117.253H269.147V126.272H278.197V117.253Z" fill="#E1DBD4"/>
<path d="M278.197 108.233H269.147V117.253H278.197V108.233Z" fill="#E1DBD4"/>
<path d="M278.197 99.2129H269.147V108.232H278.197V99.2129Z" fill="#E86526"/>
<path d="M278.197 90.1943H269.147V99.2138H278.197V90.1943Z" fill="#E86526"/>
<path d="M278.197 81.1748H269.147V90.1942H278.197V81.1748Z" fill="#E86526"/>
<path d="M278.197 72.1553H269.147V81.1747H278.197V72.1553Z" fill="#E86526"/>
<path d="M278.197 63.1367H269.147V72.1561H278.197V63.1367Z" fill="#E86526"/>
<path d="M278.197 54.1162H269.147V63.1356H278.197V54.1162Z" fill="#E86526"/>
<path d="M278.197 45.0967H269.147V54.1161H278.197V45.0967Z" fill="#E86526"/>
<path d="M278.197 36.0781H269.147V45.0976H278.197V36.0781Z" fill="#E86526"/>
<path d="M278.197 27.0586H269.147V36.078H278.197V27.0586Z" fill="#E86526"/>
<path d="M278.197 18.0381H269.147V27.0575H278.197V18.0381Z" fill="#E86526"/>
<path d="M278.197 9.01953H269.147V18.039H278.197V9.01953Z" fill="#E86526"/>
<path d="M269.147 351.85H260.097V360.961H269.147V351.85Z" fill="#595959"/>
<path d="M269.147 342.831H260.097V351.85H269.147V342.831Z" fill="#595959"/>
<path d="M269.147 333.811H260.097V342.83H269.147V333.811Z" fill="#595959"/>
<path d="M269.147 324.791H260.097V333.81H269.147V324.791Z" fill="#595959"/>
<path d="M269.147 315.772H260.097V324.792H269.147V315.772Z" fill="#595959"/>
<path d="M269.147 306.753H260.097V315.772H269.147V306.753Z" fill="#595959"/>
<path d="M269.147 297.732H260.097V306.752H269.147V297.732Z" fill="#595959"/>
<path d="M269.147 180.48H260.097V189.5H269.147V180.48Z" fill="#595959"/>
<path d="M269.147 171.462H260.097V180.481H269.147V171.462Z" fill="#595959"/>
<path d="M269.147 162.441H260.097V171.461H269.147V162.441Z" fill="#595959"/>
<path d="M269.147 153.422H260.097V162.441H269.147V153.422Z" fill="#595959"/>
<path d="M269.147 144.403H260.097V153.423H269.147V144.403Z" fill="#595959"/>
<path d="M269.147 135.384H260.097V144.403H269.147V135.384Z" fill="#595959"/>
<path d="M269.147 126.272H260.097V135.384H269.147V126.272Z" fill="#595959"/>
<path d="M269.147 117.253H260.097V126.272H269.147V117.253Z" fill="#595959"/>
<path d="M269.147 108.233H260.097V117.253H269.147V108.233Z" fill="#E1DBD4"/>
<path d="M269.147 99.2129H260.097V108.232H269.147V99.2129Z" fill="#E86526"/>
<path d="M269.147 90.1943H260.097V99.2138H269.147V90.1943Z" fill="#E86526"/>
<path d="M269.147 81.1748H260.097V90.1942H269.147V81.1748Z" fill="#E86526"/>
<path d="M269.147 72.1553H260.097V81.1747H269.147V72.1553Z" fill="#E86526"/>
<path d="M269.147 63.1367H260.097V72.1561H269.147V63.1367Z" fill="#E86526"/>
<path d="M269.147 54.1162H260.097V63.1356H269.147V54.1162Z" fill="#E86526"/>
<path d="M269.147 45.0967H260.097V54.1161H269.147V45.0967Z" fill="#E86526"/>
<path d="M269.147 36.0781H260.097V45.0976H269.147V36.0781Z" fill="#E86526"/>
<path d="M269.147 27.0586H260.097V36.078H269.147V27.0586Z" fill="#E86526"/>
<path d="M269.147 18.0381H260.097V27.0575H269.147V18.0381Z" fill="#E86526"/>
<path d="M269.147 9.01953H260.097V18.039H269.147V9.01953Z" fill="#E86526"/>
<path d="M260.097 351.85H251.046V360.961H260.097V351.85Z" fill="#E1DBD4"/>
<path d="M260.097 342.831H251.046V351.85H260.097V342.831Z" fill="#E1DBD4"/>
<path d="M260.097 333.811H251.046V342.83H260.097V333.811Z" fill="#E1DBD4"/>
<path d="M260.097 324.791H251.046V333.81H260.097V324.791Z" fill="#E1DBD4"/>
<path d="M260.097 315.772H251.046V324.792H260.097V315.772Z" fill="#E1DBD4"/>
<path d="M260.097 306.753H251.046V315.772H260.097V306.753Z" fill="#E1DBD4"/>
<path d="M260.097 297.732H251.046V306.752H260.097V297.732Z" fill="#E1DBD4"/>
<path d="M260.097 180.48H251.046V189.5H260.097V180.48Z" fill="#595959"/>
<path d="M260.097 171.462H251.046V180.481H260.097V171.462Z" fill="#595959"/>
<path d="M260.097 162.441H251.046V171.461H260.097V162.441Z" fill="#595959"/>
<path d="M260.097 153.422H251.046V162.441H260.097V153.422Z" fill="#595959"/>
<path d="M260.097 144.403H251.046V153.423H260.097V144.403Z" fill="#595959"/>
<path d="M260.097 135.384H251.046V144.403H260.097V135.384Z" fill="#595959"/>
<path d="M260.097 126.272H251.046V135.384H260.097V126.272Z" fill="#595959"/>
<path d="M260.097 117.253H251.046V126.272H260.097V117.253Z" fill="#595959"/>
<path d="M260.097 108.233H251.046V117.253H260.097V108.233Z" fill="#595959"/>
<path d="M260.097 99.2129H251.046V108.232H260.097V99.2129Z" fill="#E86526"/>
<path d="M260.097 90.1943H251.046V99.2138H260.097V90.1943Z" fill="#E86526"/>
<path d="M260.097 81.1748H251.046V90.1942H260.097V81.1748Z" fill="#E86526"/>
<path d="M260.097 72.1553H251.046V81.1747H260.097V72.1553Z" fill="#E86526"/>
<path d="M260.097 63.1367H251.046V72.1561H260.097V63.1367Z" fill="#E86526"/>
<path d="M260.097 54.1162H251.046V63.1356H260.097V54.1162Z" fill="#E86526"/>
<path d="M260.097 45.0967H251.046V54.1161H260.097V45.0967Z" fill="#E86526"/>
<path d="M260.097 36.0781H251.046V45.0976H260.097V36.0781Z" fill="#E86526"/>
<path d="M260.097 27.0586H251.046V36.078H260.097V27.0586Z" fill="#E86526"/>
<path d="M260.097 18.0381H251.046V27.0575H260.097V18.0381Z" fill="#E86526"/>
<path d="M260.097 9.01953H251.046V18.039H260.097V9.01953Z" fill="#E86526"/>
<path d="M251.046 351.85H241.903V360.961H251.046V351.85Z" fill="#595959"/>
<path d="M251.046 342.831H241.903V351.85H251.046V342.831Z" fill="#595959"/>
<path d="M251.046 333.811H241.903V342.83H251.046V333.811Z" fill="#595959"/>
<path d="M251.046 324.791H241.903V333.81H251.046V324.791Z" fill="#595959"/>
<path d="M251.046 315.772H241.903V324.792H251.046V315.772Z" fill="#595959"/>
<path d="M251.046 306.753H241.903V315.772H251.046V306.753Z" fill="#595959"/>
<path d="M251.046 297.732H241.903V306.752H251.046V297.732Z" fill="#595959"/>
<path d="M251.046 189.5H241.903V198.519H251.046V189.5Z" fill="#595959"/>
<path d="M251.046 180.48H241.903V189.5H251.046V180.48Z" fill="#595959"/>
<path d="M251.046 171.462H241.903V180.481H251.046V171.462Z" fill="#595959"/>
<path d="M251.046 162.441H241.903V171.461H251.046V162.441Z" fill="#595959"/>
<path d="M251.046 153.422H241.903V162.441H251.046V153.422Z" fill="#595959"/>
<path d="M251.046 144.403H241.903V153.423H251.046V144.403Z" fill="#595959"/>
<path d="M251.046 135.384H241.903V144.403H251.046V135.384Z" fill="#595959"/>
<path d="M251.046 126.272H241.903V135.384H251.046V126.272Z" fill="#595959"/>
<path d="M251.046 117.253H241.903V126.272H251.046V117.253Z" fill="#595959"/>
<path d="M251.046 108.233H241.903V117.253H251.046V108.233Z" fill="#595959"/>
<path d="M251.046 99.2129H241.903V108.232H251.046V99.2129Z" fill="#E86526"/>
<path d="M251.046 90.1943H241.903V99.2138H251.046V90.1943Z" fill="#E86526"/>
<path d="M251.046 81.1748H241.903V90.1942H251.046V81.1748Z" fill="#E86526"/>
<path d="M251.046 72.1553H241.903V81.1747H251.046V72.1553Z" fill="#E86526"/>
<path d="M251.046 63.1367H241.903V72.1561H251.046V63.1367Z" fill="#E86526"/>
<path d="M251.046 54.1162H241.903V63.1356H251.046V54.1162Z" fill="#E86526"/>
<path d="M251.046 45.0967H241.903V54.1161H251.046V45.0967Z" fill="#E86526"/>
<path d="M251.046 36.0781H241.903V45.0976H251.046V36.0781Z" fill="#E86526"/>
<path d="M251.046 27.0586H241.903V36.078H251.046V27.0586Z" fill="#E86526"/>
<path d="M251.046 18.0381H241.903V27.0575H251.046V18.0381Z" fill="#E86526"/>
<path d="M251.046 9.01953H241.903V18.039H251.046V9.01953Z" fill="#E86526"/>
<path d="M241.903 351.85H232.853V360.961H241.903V351.85Z" fill="#595959"/>
<path d="M241.903 342.831H232.853V351.85H241.903V342.831Z" fill="#595959"/>
<path d="M241.903 333.811H232.853V342.83H241.903V333.811Z" fill="#595959"/>
<path d="M241.903 324.791H232.853V333.81H241.903V324.791Z" fill="#595959"/>
<path d="M241.903 315.772H232.853V324.792H241.903V315.772Z" fill="#595959"/>
<path d="M241.903 306.753H232.853V315.772H241.903V306.753Z" fill="#595959"/>
<path d="M241.903 189.5H232.853V198.519H241.903V189.5Z" fill="#595959"/>
<path d="M241.903 180.48H232.853V189.5H241.903V180.48Z" fill="#595959"/>
<path d="M241.903 171.462H232.853V180.481H241.903V171.462Z" fill="#595959"/>
<path d="M241.903 162.441H232.853V171.461H241.903V162.441Z" fill="#595959"/>
<path d="M241.903 153.422H232.853V162.441H241.903V153.422Z" fill="#595959"/>
<path d="M241.903 144.403H232.853V153.423H241.903V144.403Z" fill="#595959"/>
<path d="M241.903 135.384H232.853V144.403H241.903V135.384Z" fill="#595959"/>
<path d="M241.903 126.272H232.853V135.384H241.903V126.272Z" fill="#595959"/>
<path d="M241.903 117.253H232.853V126.272H241.903V117.253Z" fill="#595959"/>
<path d="M241.903 108.233H232.853V117.253H241.903V108.233Z" fill="#595959"/>
<path d="M241.903 99.2129H232.853V108.232H241.903V99.2129Z" fill="#E86526"/>
<path d="M241.903 90.1943H232.853V99.2138H241.903V90.1943Z" fill="#E86526"/>
<path d="M241.903 81.1748H232.853V90.1942H241.903V81.1748Z" fill="#E86526"/>
<path d="M241.903 72.1553H232.853V81.1747H241.903V72.1553Z" fill="#E86526"/>
<path d="M241.903 63.1367H232.853V72.1561H241.903V63.1367Z" fill="#E86526"/>
<path d="M241.903 54.1162H232.853V63.1356H241.903V54.1162Z" fill="#E86526"/>
<path d="M241.903 45.0967H232.853V54.1161H241.903V45.0967Z" fill="#E86526"/>
<path d="M241.903 36.0781H232.853V45.0976H241.903V36.0781Z" fill="#E86526"/>
<path d="M241.903 27.0586H232.853V36.078H241.903V27.0586Z" fill="#E86526"/>
<path d="M241.903 18.0381H232.853V27.0575H241.903V18.0381Z" fill="#E86526"/>
<path d="M241.903 9.01953H232.853V18.039H241.903V9.01953Z" fill="#E86526"/>
<path d="M232.853 351.85H223.803V360.961H232.853V351.85Z" fill="#E86526"/>
<path d="M232.853 342.831H223.803V351.85H232.853V342.831Z" fill="#E86526"/>
<path d="M232.853 333.811H223.803V342.83H232.853V333.811Z" fill="#E86526"/>
<path d="M232.853 324.791H223.803V333.81H232.853V324.791Z" fill="#E86526"/>
<path d="M232.853 315.772H223.803V324.792H232.853V315.772Z" fill="#E86526"/>
<path d="M232.853 189.5H223.803V198.519H232.853V189.5Z" fill="#595959"/>
<path d="M232.853 180.48H223.803V189.5H232.853V180.48Z" fill="#595959"/>
<path d="M232.853 171.462H223.803V180.481H232.853V171.462Z" fill="#595959"/>
<path d="M232.853 162.441H223.803V171.461H232.853V162.441Z" fill="#595959"/>
<path d="M232.853 153.422H223.803V162.441H232.853V153.422Z" fill="#595959"/>
<path d="M232.853 144.403H223.803V153.423H232.853V144.403Z" fill="#595959"/>
<path d="M232.853 135.384H223.803V144.403H232.853V135.384Z" fill="#595959"/>
<path d="M232.853 126.272H223.803V135.384H232.853V126.272Z" fill="#595959"/>
<path d="M232.853 117.253H223.803V126.272H232.853V117.253Z" fill="#595959"/>
<path d="M232.853 108.233H223.803V117.253H232.853V108.233Z" fill="#595959"/>
<path d="M232.853 99.2129H223.803V108.232H232.853V99.2129Z" fill="#E86526"/>
<path d="M232.853 90.1943H223.803V99.2138H232.853V90.1943Z" fill="#E86526"/>
<path d="M232.853 81.1748H223.803V90.1942H232.853V81.1748Z" fill="#E86526"/>
<path d="M232.853 72.1553H223.803V81.1747H232.853V72.1553Z" fill="#E86526"/>
<path d="M232.853 63.1367H223.803V72.1561H232.853V63.1367Z" fill="#E86526"/>
<path d="M232.853 54.1162H223.803V63.1356H232.853V54.1162Z" fill="#E86526"/>
<path d="M232.853 45.0967H223.803V54.1161H232.853V45.0967Z" fill="#E86526"/>
<path d="M232.853 36.0781H223.803V45.0976H232.853V36.0781Z" fill="#E86526"/>
<path d="M232.853 27.0586H223.803V36.078H232.853V27.0586Z" fill="#E86526"/>
<path d="M232.853 18.0381H223.803V27.0575H232.853V18.0381Z" fill="#E86526"/>
<path d="M232.853 9.01953H223.803V18.039H232.853V9.01953Z" fill="#E86526"/>
<path d="M223.803 351.85H214.752V360.961H223.803V351.85Z" fill="#E86526"/>
<path d="M223.803 342.831H214.752V351.85H223.803V342.831Z" fill="#E86526"/>
<path d="M223.803 333.811H214.752V342.83H223.803V333.811Z" fill="#E86526"/>
<path d="M223.803 324.791H214.752V333.81H223.803V324.791Z" fill="#E86526"/>
<path d="M223.803 315.772H214.752V324.792H223.803V315.772Z" fill="#E86526"/>
<path d="M223.803 189.5H214.752V198.519H223.803V189.5Z" fill="#595959"/>
<path d="M223.803 180.48H214.752V189.5H223.803V180.48Z" fill="#595959"/>
<path d="M223.803 171.462H214.752V180.481H223.803V171.462Z" fill="#595959"/>
<path d="M223.803 162.441H214.752V171.461H223.803V162.441Z" fill="#595959"/>
<path d="M223.803 153.422H214.752V162.441H223.803V153.422Z" fill="#595959"/>
<path d="M223.803 144.403H214.752V153.423H223.803V144.403Z" fill="#595959"/>
<path d="M223.803 135.384H214.752V144.403H223.803V135.384Z" fill="#595959"/>
<path d="M223.803 126.272H214.752V135.384H223.803V126.272Z" fill="#595959"/>
<path d="M223.803 117.253H214.752V126.272H223.803V117.253Z" fill="#595959"/>
<path d="M223.803 108.233H214.752V117.253H223.803V108.233Z" fill="#595959"/>
<path d="M223.803 99.2129H214.752V108.232H223.803V99.2129Z" fill="#E86526"/>
<path d="M223.803 90.1943H214.752V99.2138H223.803V90.1943Z" fill="#E86526"/>
<path d="M223.803 81.1748H214.752V90.1942H223.803V81.1748Z" fill="#E86526"/>
<path d="M223.803 72.1553H214.752V81.1747H223.803V72.1553Z" fill="#E86526"/>
<path d="M223.803 63.1367H214.752V72.1561H223.803V63.1367Z" fill="#E86526"/>
<path d="M223.803 54.1162H214.752V63.1356H223.803V54.1162Z" fill="#E86526"/>
<path d="M223.803 45.0967H214.752V54.1161H223.803V45.0967Z" fill="#E86526"/>
<path d="M223.803 36.0781H214.752V45.0976H223.803V36.0781Z" fill="#E86526"/>
<path d="M223.803 27.0586H214.752V36.078H223.803V27.0586Z" fill="#E86526"/>
<path d="M223.803 18.0381H214.752V27.0575H223.803V18.0381Z" fill="#E86526"/>
<path d="M223.803 9.01953H214.752V18.039H223.803V9.01953Z" fill="#E86526"/>
<path d="M214.752 351.85H205.702V360.961H214.752V351.85Z" fill="#E86526"/>
<path d="M214.752 342.831H205.702V351.85H214.752V342.831Z" fill="#E86526"/>
<path d="M214.752 333.811H205.702V342.83H214.752V333.811Z" fill="#E86526"/>
<path d="M214.752 324.791H205.702V333.81H214.752V324.791Z" fill="#E86526"/>
<path d="M214.752 315.772H205.702V324.792H214.752V315.772Z" fill="#E86526"/>
<path d="M214.752 306.753H205.702V315.772H214.752V306.753Z" fill="#E1DBD4"/>
<path d="M214.752 297.732H205.702V306.752H214.752V297.732Z" fill="#E1DBD4"/>
<path d="M214.752 288.714H205.702V297.733H214.752V288.714Z" fill="#E1DBD4"/>
<path d="M214.752 279.694H205.702V288.714H214.752V279.694Z" fill="#E1DBD4"/>
<path d="M214.752 270.675H205.702V279.694H214.752V270.675Z" fill="#E1DBD4"/>
<path d="M214.752 261.656H205.702V270.676H214.752V261.656Z" fill="#E1DBD4"/>
<path d="M214.752 252.636H205.702V261.655H214.752V252.636Z" fill="#E1DBD4"/>
<path d="M214.752 243.616H205.702V252.636H214.752V243.616Z" fill="#E1DBD4"/>
<path d="M214.752 189.5H205.702V198.519H214.752V189.5Z" fill="#595959"/>
<path d="M214.752 180.48H205.702V189.5H214.752V180.48Z" fill="#595959"/>
<path d="M214.752 171.462H205.702V180.481H214.752V171.462Z" fill="#595959"/>
<path d="M214.752 162.441H205.702V171.461H214.752V162.441Z" fill="#595959"/>
<path d="M214.752 153.422H205.702V162.441H214.752V153.422Z" fill="#595959"/>
<path d="M214.752 144.403H205.702V153.423H214.752V144.403Z" fill="#595959"/>
<path d="M214.752 135.384H205.702V144.403H214.752V135.384Z" fill="#595959"/>
<path d="M214.752 126.272H205.702V135.384H214.752V126.272Z" fill="#595959"/>
<path d="M214.752 117.253H205.702V126.272H214.752V117.253Z" fill="#595959"/>
<path d="M214.752 108.233H205.702V117.253H214.752V108.233Z" fill="#595959"/>
<path d="M214.752 99.2129H205.702V108.232H214.752V99.2129Z" fill="#E86526"/>
<path d="M214.752 90.1943H205.702V99.2138H214.752V90.1943Z" fill="#E86526"/>
<path d="M214.752 81.1748H205.702V90.1942H214.752V81.1748Z" fill="#E86526"/>
<path d="M214.752 72.1553H205.702V81.1747H214.752V72.1553Z" fill="#E86526"/>
<path d="M214.752 63.1367H205.702V72.1561H214.752V63.1367Z" fill="#E86526"/>
<path d="M214.752 54.1162H205.702V63.1356H214.752V54.1162Z" fill="#E86526"/>
<path d="M214.752 45.0967H205.702V54.1161H214.752V45.0967Z" fill="#E86526"/>
<path d="M214.752 36.0781H205.702V45.0976H214.752V36.0781Z" fill="#E86526"/>
<path d="M214.752 27.0586H205.702V36.078H214.752V27.0586Z" fill="#E86526"/>
<path d="M214.752 18.0381H205.702V27.0575H214.752V18.0381Z" fill="#E86526"/>
<path d="M214.752 9.01953H205.702V18.039H214.752V9.01953Z" fill="#E86526"/>
<path d="M205.702 351.85H196.651V360.961H205.702V351.85Z" fill="#E86526"/>
<path d="M205.702 342.831H196.651V351.85H205.702V342.831Z" fill="#E86526"/>
<path d="M205.702 333.811H196.651V342.83H205.702V333.811Z" fill="#E86526"/>
<path d="M205.702 324.791H196.651V333.81H205.702V324.791Z" fill="#E86526"/>
<path d="M205.702 315.772H196.651V324.792H205.702V315.772Z" fill="#E86526"/>
<path d="M205.702 306.753H196.651V315.772H205.702V306.753Z" fill="#E1DBD4"/>
<path d="M205.702 297.732H196.651V306.752H205.702V297.732Z" fill="#E1DBD4"/>
<path d="M205.702 288.714H196.651V297.733H205.702V288.714Z" fill="#E1DBD4"/>
<path d="M205.702 279.694H196.651V288.714H205.702V279.694Z" fill="#E1DBD4"/>
<path d="M205.702 270.675H196.651V279.694H205.702V270.675Z" fill="#E1DBD4"/>
<path d="M205.702 261.656H196.651V270.676H205.702V261.656Z" fill="#E1DBD4"/>
<path d="M205.702 252.636H196.651V261.655H205.702V252.636Z" fill="#E1DBD4"/>
<path d="M205.702 243.616H196.651V252.636H205.702V243.616Z" fill="#E1DBD4"/>
<path d="M205.702 234.597H196.651V243.616H205.702V234.597Z" fill="#E1DBD4"/>
<path d="M205.702 189.5H196.651V198.519H205.702V189.5Z" fill="#595959"/>
<path d="M205.702 180.48H196.651V189.5H205.702V180.48Z" fill="#595959"/>
<path d="M205.702 171.462H196.651V180.481H205.702V171.462Z" fill="#595959"/>
<path d="M205.702 162.441H196.651V171.461H205.702V162.441Z" fill="#595959"/>
<path d="M205.702 153.422H196.651V162.441H205.702V153.422Z" fill="#595959"/>
<path d="M205.702 144.403H196.651V153.423H205.702V144.403Z" fill="#595959"/>
<path d="M205.702 135.384H196.651V144.403H205.702V135.384Z" fill="#595959"/>
<path d="M205.702 126.272H196.651V135.384H205.702V126.272Z" fill="#595959"/>
<path d="M205.702 117.253H196.651V126.272H205.702V117.253Z" fill="#595959"/>
<path d="M205.702 108.233H196.651V117.253H205.702V108.233Z" fill="#595959"/>
<path d="M205.702 99.2129H196.651V108.232H205.702V99.2129Z" fill="#E86526"/>
<path d="M205.702 90.1943H196.651V99.2138H205.702V90.1943Z" fill="#E86526"/>
<path d="M205.702 81.1748H196.651V90.1942H205.702V81.1748Z" fill="#E86526"/>
<path d="M205.702 72.1553H196.651V81.1747H205.702V72.1553Z" fill="#E86526"/>
<path d="M205.702 63.1367H196.651V72.1561H205.702V63.1367Z" fill="#E86526"/>
<path d="M205.702 54.1162H196.651V63.1356H205.702V54.1162Z" fill="#E86526"/>
<path d="M205.702 45.0967H196.651V54.1161H205.702V45.0967Z" fill="#E86526"/>
<path d="M205.702 36.0781H196.651V45.0976H205.702V36.0781Z" fill="#E86526"/>
<path d="M205.702 27.0586H196.651V36.078H205.702V27.0586Z" fill="#E86526"/>
<path d="M205.702 18.0381H196.651V27.0575H205.702V18.0381Z" fill="#E86526"/>
<path d="M205.702 9.01953H196.651V18.039H205.702V9.01953Z" fill="#E86526"/>
<path d="M205.702 0H196.651V9.01943H205.702V0Z" fill="#595959"/>
<path d="M196.651 351.85H187.601V360.961H196.651V351.85Z" fill="#E86526"/>
<path d="M196.651 342.831H187.601V351.85H196.651V342.831Z" fill="#E86526"/>
<path d="M196.651 333.811H187.601V342.83H196.651V333.811Z" fill="#E86526"/>
<path d="M196.651 324.791H187.601V333.81H196.651V324.791Z" fill="#E86526"/>
<path d="M196.651 315.772H187.601V324.792H196.651V315.772Z" fill="#E86526"/>
<path d="M196.651 306.753H187.601V315.772H196.651V306.753Z" fill="#E1DBD4"/>
<path d="M196.651 297.732H187.601V306.752H196.651V297.732Z" fill="#E1DBD4"/>
<path d="M196.651 288.714H187.601V297.733H196.651V288.714Z" fill="#E1DBD4"/>
<path d="M196.651 279.694H187.601V288.714H196.651V279.694Z" fill="#E1DBD4"/>
<path d="M196.651 270.675H187.601V279.694H196.651V270.675Z" fill="#E1DBD4"/>
<path d="M196.651 261.656H187.601V270.676H196.651V261.656Z" fill="#E1DBD4"/>
<path d="M196.651 252.636H187.601V261.655H196.651V252.636Z" fill="#E1DBD4"/>
<path d="M196.651 243.616H187.601V252.636H196.651V243.616Z" fill="#E1DBD4"/>
<path d="M196.651 234.597H187.601V243.616H196.651V234.597Z" fill="#E1DBD4"/>
<path d="M196.651 225.578H187.601V234.598H196.651V225.578Z" fill="#E1DBD4"/>
<path d="M196.651 189.5H187.601V198.519H196.651V189.5Z" fill="#595959"/>
<path d="M196.651 180.48H187.601V189.5H196.651V180.48Z" fill="#595959"/>
<path d="M196.651 171.462H187.601V180.481H196.651V171.462Z" fill="#595959"/>
<path d="M196.651 162.441H187.601V171.461H196.651V162.441Z" fill="#595959"/>
<path d="M196.651 153.422H187.601V162.441H196.651V153.422Z" fill="#595959"/>
<path d="M196.651 144.403H187.601V153.423H196.651V144.403Z" fill="#595959"/>
<path d="M196.651 135.384H187.601V144.403H196.651V135.384Z" fill="#595959"/>
<path d="M196.651 126.272H187.601V135.384H196.651V126.272Z" fill="#595959"/>
<path d="M196.651 117.253H187.601V126.272H196.651V117.253Z" fill="#595959"/>
<path d="M196.651 108.233H187.601V117.253H196.651V108.233Z" fill="#595959"/>
<path d="M196.651 99.2129H187.601V108.232H196.651V99.2129Z" fill="#E86526"/>
<path d="M196.651 90.1943H187.601V99.2138H196.651V90.1943Z" fill="#E86526"/>
<path d="M196.651 81.1748H187.601V90.1942H196.651V81.1748Z" fill="#E86526"/>
<path d="M196.651 72.1553H187.601V81.1747H196.651V72.1553Z" fill="#E86526"/>
<path d="M196.651 63.1367H187.601V72.1561H196.651V63.1367Z" fill="#E86526"/>
<path d="M196.651 54.1162H187.601V63.1356H196.651V54.1162Z" fill="#E86526"/>
<path d="M196.651 45.0967H187.601V54.1161H196.651V45.0967Z" fill="#E86526"/>
<path d="M196.651 36.0781H187.601V45.0976H196.651V36.0781Z" fill="#E86526"/>
<path d="M196.651 27.0586H187.601V36.078H196.651V27.0586Z" fill="#E86526"/>
<path d="M196.651 18.0381H187.601V27.0575H196.651V18.0381Z" fill="#E86526"/>
<path d="M196.651 9.01953H187.601V18.039H196.651V9.01953Z" fill="#E86526"/>
<path d="M196.651 0H187.601V9.01943H196.651V0Z" fill="#595959"/>
<path d="M187.601 351.85H178.55V360.961H187.601V351.85Z" fill="#E86526"/>
<path d="M187.601 342.831H178.55V351.85H187.601V342.831Z" fill="#E86526"/>
<path d="M187.601 333.811H178.55V342.83H187.601V333.811Z" fill="#E86526"/>
<path d="M187.601 324.791H178.55V333.81H187.601V324.791Z" fill="#E86526"/>
<path d="M187.601 315.772H178.55V324.792H187.601V315.772Z" fill="#E86526"/>
<path d="M187.601 306.753H178.55V315.772H187.601V306.753Z" fill="#E1DBD4"/>
<path d="M187.601 297.732H178.55V306.752H187.601V297.732Z" fill="#E1DBD4"/>
<path d="M187.601 288.714H178.55V297.733H187.601V288.714Z" fill="#E1DBD4"/>
<path d="M187.601 279.694H178.55V288.714H187.601V279.694Z" fill="#E1DBD4"/>
<path d="M187.601 270.675H178.55V279.694H187.601V270.675Z" fill="#E1DBD4"/>
<path d="M187.601 261.656H178.55V270.676H187.601V261.656Z" fill="#E1DBD4"/>
<path d="M187.601 252.636H178.55V261.655H187.601V252.636Z" fill="#595959"/>
<path d="M187.601 243.616H178.55V252.636H187.601V243.616Z" fill="#595959"/>
<path d="M187.601 234.597H178.55V243.616H187.601V234.597Z" fill="#595959"/>
<path d="M187.601 225.578H178.55V234.598H187.601V225.578Z" fill="#E1DBD4"/>
<path d="M187.601 216.558H178.55V225.577H187.601V216.558Z" fill="#E1DBD4"/>
<path d="M187.601 189.5H178.55V198.519H187.601V189.5Z" fill="#595959"/>
<path d="M187.601 180.48H178.55V189.5H187.601V180.48Z" fill="#595959"/>
<path d="M187.601 171.462H178.55V180.481H187.601V171.462Z" fill="#595959"/>
<path d="M187.601 162.441H178.55V171.461H187.601V162.441Z" fill="#595959"/>
<path d="M187.601 153.422H178.55V162.441H187.601V153.422Z" fill="#595959"/>
<path d="M187.601 144.403H178.55V153.423H187.601V144.403Z" fill="#595959"/>
<path d="M187.601 135.384H178.55V144.403H187.601V135.384Z" fill="#595959"/>
<path d="M187.601 126.272H178.55V135.384H187.601V126.272Z" fill="#595959"/>
<path d="M187.601 117.253H178.55V126.272H187.601V117.253Z" fill="#595959"/>
<path d="M187.601 108.233H178.55V117.253H187.601V108.233Z" fill="#595959"/>
<path d="M187.601 99.2129H178.55V108.232H187.601V99.2129Z" fill="#E86526"/>
<path d="M187.601 90.1943H178.55V99.2138H187.601V90.1943Z" fill="#E86526"/>
<path d="M187.601 81.1748H178.55V90.1942H187.601V81.1748Z" fill="#E86526"/>
<path d="M187.601 72.1553H178.55V81.1747H187.601V72.1553Z" fill="#E86526"/>
<path d="M187.601 63.1367H178.55V72.1561H187.601V63.1367Z" fill="#E86526"/>
<path d="M187.601 54.1162H178.55V63.1356H187.601V54.1162Z" fill="#E86526"/>
<path d="M187.601 45.0967H178.55V54.1161H187.601V45.0967Z" fill="#E86526"/>
<path d="M187.601 36.0781H178.55V45.0976H187.601V36.0781Z" fill="#E86526"/>
<path d="M187.601 27.0586H178.55V36.078H187.601V27.0586Z" fill="#E86526"/>
<path d="M187.601 18.0381H178.55V27.0575H187.601V18.0381Z" fill="#E86526"/>
<path d="M187.601 9.01953H178.55V18.039H187.601V9.01953Z" fill="#E86526"/>
<path d="M187.601 0H178.55V9.01943H187.601V0Z" fill="#595959"/>
<path d="M178.55 351.85H169.5V360.961H178.55V351.85Z" fill="#E86526"/>
<path d="M178.55 342.831H169.5V351.85H178.55V342.831Z" fill="#E86526"/>
<path d="M178.55 333.811H169.5V342.83H178.55V333.811Z" fill="#E86526"/>
<path d="M178.55 324.791H169.5V333.81H178.55V324.791Z" fill="#E86526"/>
<path d="M178.55 315.772H169.5V324.792H178.55V315.772Z" fill="#E86526"/>
<path d="M178.55 306.753H169.5V315.772H178.55V306.753Z" fill="#E1DBD4"/>
<path d="M178.55 297.732H169.5V306.752H178.55V297.732Z" fill="#E1DBD4"/>
<path d="M178.55 288.714H169.5V297.733H178.55V288.714Z" fill="#E1DBD4"/>
<path d="M178.55 279.694H169.5V288.714H178.55V279.694Z" fill="#E1DBD4"/>
<path d="M178.55 270.675H169.5V279.694H178.55V270.675Z" fill="#E1DBD4"/>
<path d="M178.55 261.656H169.5V270.676H178.55V261.656Z" fill="#595959"/>
<path d="M178.55 252.636H169.5V261.655H178.55V252.636Z" fill="#595959"/>
<path d="M178.55 243.616H169.5V252.636H178.55V243.616Z" fill="#595959"/>
<path d="M178.55 234.597H169.5V243.616H178.55V234.597Z" fill="#595959"/>
<path d="M178.55 225.578H169.5V234.598H178.55V225.578Z" fill="#595959"/>
<path d="M178.55 216.558H169.5V225.577H178.55V216.558Z" fill="#595959"/>
<path d="M178.55 207.538H169.5V216.558H178.55V207.538Z" fill="#E1DBD4"/>
<path d="M178.55 189.5H169.5V198.519H178.55V189.5Z" fill="#595959"/>
<path d="M178.55 180.48H169.5V189.5H178.55V180.48Z" fill="#595959"/>
<path d="M178.55 171.462H169.5V180.481H178.55V171.462Z" fill="#595959"/>
<path d="M178.55 162.441H169.5V171.461H178.55V162.441Z" fill="#595959"/>
<path d="M178.55 153.422H169.5V162.441H178.55V153.422Z" fill="#595959"/>
<path d="M178.55 144.403H169.5V153.423H178.55V144.403Z" fill="#595959"/>
<path d="M178.55 135.384H169.5V144.403H178.55V135.384Z" fill="#595959"/>
<path d="M178.55 126.272H169.5V135.384H178.55V126.272Z" fill="#595959"/>
<path d="M178.55 117.253H169.5V126.272H178.55V117.253Z" fill="#595959"/>
<path d="M178.55 108.233H169.5V117.253H178.55V108.233Z" fill="#595959"/>
<path d="M178.55 99.2129H169.5V108.232H178.55V99.2129Z" fill="#E86526"/>
<path d="M178.55 90.1943H169.5V99.2138H178.55V90.1943Z" fill="#E86526"/>
<path d="M178.55 81.1748H169.5V90.1942H178.55V81.1748Z" fill="#E86526"/>
<path d="M178.55 72.1553H169.5V81.1747H178.55V72.1553Z" fill="#E86526"/>
<path d="M178.55 63.1367H169.5V72.1561H178.55V63.1367Z" fill="#E86526"/>
<path d="M178.55 54.1162H169.5V63.1356H178.55V54.1162Z" fill="#E86526"/>
<path d="M178.55 45.0967H169.5V54.1161H178.55V45.0967Z" fill="#E86526"/>
<path d="M178.55 36.0781H169.5V45.0976H178.55V36.0781Z" fill="#E86526"/>
<path d="M178.55 27.0586H169.5V36.078H178.55V27.0586Z" fill="#E86526"/>
<path d="M178.55 18.0381H169.5V27.0575H178.55V18.0381Z" fill="#E86526"/>
<path d="M178.55 9.01953H169.5V18.039H178.55V9.01953Z" fill="#E86526"/>
<path d="M169.5 351.85H160.45V360.961H169.5V351.85Z" fill="#E86526"/>
<path d="M169.5 342.831H160.45V351.85H169.5V342.831Z" fill="#E86526"/>
<path d="M169.5 333.811H160.45V342.83H169.5V333.811Z" fill="#E86526"/>
<path d="M169.5 324.791H160.45V333.81H169.5V324.791Z" fill="#E86526"/>
<path d="M169.5 315.772H160.45V324.792H169.5V315.772Z" fill="#E1DBD4"/>
<path d="M169.5 306.753H160.45V315.772H169.5V306.753Z" fill="#E1DBD4"/>
<path d="M169.5 297.732H160.45V306.752H169.5V297.732Z" fill="#E1DBD4"/>
<path d="M169.5 288.714H160.45V297.733H169.5V288.714Z" fill="#E1DBD4"/>
<path d="M169.5 279.694H160.45V288.714H169.5V279.694Z" fill="#E1DBD4"/>
<path d="M169.5 270.675H160.45V279.694H169.5V270.675Z" fill="#595959"/>
<path d="M169.5 261.656H160.45V270.676H169.5V261.656Z" fill="#595959"/>
<path d="M169.5 252.636H160.45V261.655H169.5V252.636Z" fill="#595959"/>
<path d="M169.5 243.616H160.45V252.636H169.5V243.616Z" fill="#595959"/>
<path d="M169.5 234.597H160.45V243.616H169.5V234.597Z" fill="#595959"/>
<path d="M169.5 225.578H160.45V234.598H169.5V225.578Z" fill="#595959"/>
<path d="M169.5 216.558H160.45V225.577H169.5V216.558Z" fill="#595959"/>
<path d="M169.5 207.538H160.45V216.558H169.5V207.538Z" fill="#E1DBD4"/>
<path d="M169.5 189.5H160.45V198.519H169.5V189.5Z" fill="#595959"/>
<path d="M169.5 180.48H160.45V189.5H169.5V180.48Z" fill="#595959"/>
<path d="M169.5 171.462H160.45V180.481H169.5V171.462Z" fill="#595959"/>
<path d="M169.5 162.441H160.45V171.461H169.5V162.441Z" fill="#595959"/>
<path d="M169.5 153.422H160.45V162.441H169.5V153.422Z" fill="#595959"/>
<path d="M169.5 144.403H160.45V153.423H169.5V144.403Z" fill="#595959"/>
<path d="M169.5 135.384H160.45V144.403H169.5V135.384Z" fill="#595959"/>
<path d="M169.5 126.272H160.45V135.384H169.5V126.272Z" fill="#595959"/>
<path d="M169.5 117.253H160.45V126.272H169.5V117.253Z" fill="#595959"/>
<path d="M169.5 108.233H160.45V117.253H169.5V108.233Z" fill="#595959"/>
<path d="M169.5 99.2129H160.45V108.232H169.5V99.2129Z" fill="#E86526"/>
<path d="M169.5 90.1943H160.45V99.2138H169.5V90.1943Z" fill="#E86526"/>
<path d="M169.5 81.1748H160.45V90.1942H169.5V81.1748Z" fill="#E86526"/>
<path d="M169.5 72.1553H160.45V81.1747H169.5V72.1553Z" fill="#E86526"/>
<path d="M169.5 63.1367H160.45V72.1561H169.5V63.1367Z" fill="#E86526"/>
<path d="M169.5 54.1162H160.45V63.1356H169.5V54.1162Z" fill="#E86526"/>
<path d="M169.5 45.0967H160.45V54.1161H169.5V45.0967Z" fill="#E86526"/>
<path d="M169.5 36.0781H160.45V45.0976H169.5V36.0781Z" fill="#E86526"/>
<path d="M169.5 27.0586H160.45V36.078H169.5V27.0586Z" fill="#E86526"/>
<path d="M169.5 18.0381H160.45V27.0575H169.5V18.0381Z" fill="#E86526"/>
<path d="M169.5 9.01953H160.45V18.039H169.5V9.01953Z" fill="#E86526"/>
<path d="M160.45 351.85H151.399V360.961H160.45V351.85Z" fill="#E86526"/>
<path d="M160.45 342.831H151.399V351.85H160.45V342.831Z" fill="#E86526"/>
<path d="M160.45 333.811H151.399V342.83H160.45V333.811Z" fill="#E1DBD4"/>
<path d="M160.45 324.791H151.399V333.81H160.45V324.791Z" fill="#E1DBD4"/>
<path d="M160.45 315.772H151.399V324.792H160.45V315.772Z" fill="#E1DBD4"/>
<path d="M160.45 306.753H151.399V315.772H160.45V306.753Z" fill="#E1DBD4"/>
<path d="M160.45 297.732H151.399V306.752H160.45V297.732Z" fill="#E1DBD4"/>
<path d="M160.45 288.714H151.399V297.733H160.45V288.714Z" fill="#E1DBD4"/>
<path d="M160.45 279.694H151.399V288.714H160.45V279.694Z" fill="#E1DBD4"/>
<path d="M160.45 270.675H151.399V279.694H160.45V270.675Z" fill="#595959"/>
<path d="M160.45 261.656H151.399V270.676H160.45V261.656Z" fill="#595959"/>
<path d="M160.45 252.636H151.399V261.655H160.45V252.636Z" fill="#595959"/>
<path d="M160.45 243.616H151.399V252.636H160.45V243.616Z" fill="#595959"/>
<path d="M160.45 234.597H151.399V243.616H160.45V234.597Z" fill="#595959"/>
<path d="M160.45 225.578H151.399V234.598H160.45V225.578Z" fill="#595959"/>
<path d="M160.45 216.558H151.399V225.577H160.45V216.558Z" fill="#595959"/>
<path d="M160.45 207.538H151.399V216.558H160.45V207.538Z" fill="#E1DBD4"/>
<path d="M160.45 189.5H151.399V198.519H160.45V189.5Z" fill="#595959"/>
<path d="M160.45 180.48H151.399V189.5H160.45V180.48Z" fill="#595959"/>
<path d="M160.45 171.462H151.399V180.481H160.45V171.462Z" fill="#595959"/>
<path d="M160.45 162.441H151.399V171.461H160.45V162.441Z" fill="#595959"/>
<path d="M160.45 153.422H151.399V162.441H160.45V153.422Z" fill="#595959"/>
<path d="M160.45 144.403H151.399V153.423H160.45V144.403Z" fill="#595959"/>
<path d="M160.45 135.384H151.399V144.403H160.45V135.384Z" fill="#595959"/>
<path d="M160.45 126.272H151.399V135.384H160.45V126.272Z" fill="#595959"/>
<path d="M160.45 117.253H151.399V126.272H160.45V117.253Z" fill="#595959"/>
<path d="M160.45 108.233H151.399V117.253H160.45V108.233Z" fill="#595959"/>
<path d="M160.45 99.2129H151.399V108.232H160.45V99.2129Z" fill="#E86526"/>
<path d="M160.45 90.1943H151.399V99.2138H160.45V90.1943Z" fill="#E86526"/>
<path d="M160.45 81.1748H151.399V90.1942H160.45V81.1748Z" fill="#E86526"/>
<path d="M160.45 72.1553H151.399V81.1747H160.45V72.1553Z" fill="#E86526"/>
<path d="M160.45 63.1367H151.399V72.1561H160.45V63.1367Z" fill="#E86526"/>
<path d="M160.45 54.1162H151.399V63.1356H160.45V54.1162Z" fill="#E86526"/>
<path d="M160.45 45.0967H151.399V54.1161H160.45V45.0967Z" fill="#E86526"/>
<path d="M160.45 36.0781H151.399V45.0976H160.45V36.0781Z" fill="#E86526"/>
<path d="M160.45 27.0586H151.399V36.078H160.45V27.0586Z" fill="#E86526"/>
<path d="M160.45 18.0381H151.399V27.0575H160.45V18.0381Z" fill="#E86526"/>
<path d="M160.45 9.01953H151.399V18.039H160.45V9.01953Z" fill="#E86526"/>
<path d="M151.399 351.85H142.349V360.961H151.399V351.85Z" fill="#E86526"/>
<path d="M151.399 342.831H142.349V351.85H151.399V342.831Z" fill="#E86526"/>
<path d="M151.399 333.811H142.349V342.83H151.399V333.811Z" fill="#E1DBD4"/>
<path d="M151.399 324.791H142.349V333.81H151.399V324.791Z" fill="#E1DBD4"/>
<path d="M151.399 315.772H142.349V324.792H151.399V315.772Z" fill="#E1DBD4"/>
<path d="M151.399 306.753H142.349V315.772H151.399V306.753Z" fill="#E1DBD4"/>
<path d="M151.399 297.732H142.349V306.752H151.399V297.732Z" fill="#E1DBD4"/>
<path d="M151.399 288.714H142.349V297.733H151.399V288.714Z" fill="#E1DBD4"/>
<path d="M151.399 279.694H142.349V288.714H151.399V279.694Z" fill="#E1DBD4"/>
<path d="M151.399 270.675H142.349V279.694H151.399V270.675Z" fill="#595959"/>
<path d="M151.399 261.656H142.349V270.676H151.399V261.656Z" fill="#595959"/>
<path d="M151.399 252.636H142.349V261.655H151.399V252.636Z" fill="#595959"/>
<path d="M151.399 243.616H142.349V252.636H151.399V243.616Z" fill="#595959"/>
<path d="M151.399 234.597H142.349V243.616H151.399V234.597Z" fill="#595959"/>
<path d="M151.399 225.578H142.349V234.598H151.399V225.578Z" fill="#595959"/>
<path d="M151.399 216.558H142.349V225.577H151.399V216.558Z" fill="#595959"/>
<path d="M151.399 207.538H142.349V216.558H151.399V207.538Z" fill="#E1DBD4"/>
<path d="M151.399 189.5H142.349V198.519H151.399V189.5Z" fill="#595959"/>
<path d="M151.399 180.48H142.349V189.5H151.399V180.48Z" fill="#595959"/>
<path d="M151.399 171.462H142.349V180.481H151.399V171.462Z" fill="#595959"/>
<path d="M151.399 162.441H142.349V171.461H151.399V162.441Z" fill="#595959"/>
<path d="M151.399 153.422H142.349V162.441H151.399V153.422Z" fill="#595959"/>
<path d="M151.399 144.403H142.349V153.423H151.399V144.403Z" fill="#595959"/>
<path d="M151.399 135.384H142.349V144.403H151.399V135.384Z" fill="#595959"/>
<path d="M151.399 126.272H142.349V135.384H151.399V126.272Z" fill="#595959"/>
<path d="M151.399 117.253H142.349V126.272H151.399V117.253Z" fill="#595959"/>
<path d="M151.399 108.233H142.349V117.253H151.399V108.233Z" fill="#595959"/>
<path d="M151.399 99.2129H142.349V108.232H151.399V99.2129Z" fill="#E86526"/>
<path d="M151.399 90.1943H142.349V99.2138H151.399V90.1943Z" fill="#E86526"/>
<path d="M151.399 81.1748H142.349V90.1942H151.399V81.1748Z" fill="#E86526"/>
<path d="M151.399 72.1553H142.349V81.1747H151.399V72.1553Z" fill="#E86526"/>
<path d="M151.399 63.1367H142.349V72.1561H151.399V63.1367Z" fill="#E86526"/>
<path d="M151.399 54.1162H142.349V63.1356H151.399V54.1162Z" fill="#E86526"/>
<path d="M151.399 45.0967H142.349V54.1161H151.399V45.0967Z" fill="#E86526"/>
<path d="M151.399 36.0781H142.349V45.0976H151.399V36.0781Z" fill="#E86526"/>
<path d="M151.399 27.0586H142.349V36.078H151.399V27.0586Z" fill="#E86526"/>
<path d="M151.399 18.0381H142.349V27.0575H151.399V18.0381Z" fill="#E86526"/>
<path d="M151.399 9.01953H142.349V18.039H151.399V9.01953Z" fill="#E86526"/>
<path d="M142.349 351.85H133.298V360.961H142.349V351.85Z" fill="#E86526"/>
<path d="M142.349 342.831H133.298V351.85H142.349V342.831Z" fill="#E1DBD4"/>
<path d="M142.349 333.811H133.298V342.83H142.349V333.811Z" fill="#E1DBD4"/>
<path d="M142.349 324.791H133.298V333.81H142.349V324.791Z" fill="#E1DBD4"/>
<path d="M142.349 315.772H133.298V324.792H142.349V315.772Z" fill="#E1DBD4"/>
<path d="M142.349 306.753H133.298V315.772H142.349V306.753Z" fill="#E1DBD4"/>
<path d="M142.349 297.732H133.298V306.752H142.349V297.732Z" fill="#E1DBD4"/>
<path d="M142.349 288.714H133.298V297.733H142.349V288.714Z" fill="#E1DBD4"/>
<path d="M142.349 279.694H133.298V288.714H142.349V279.694Z" fill="#E1DBD4"/>
<path d="M142.349 270.675H133.298V279.694H142.349V270.675Z" fill="#595959"/>
<path d="M142.349 261.656H133.298V270.676H142.349V261.656Z" fill="#595959"/>
<path d="M142.349 252.636H133.298V261.655H142.349V252.636Z" fill="#595959"/>
<path d="M142.349 243.616H133.298V252.636H142.349V243.616Z" fill="#595959"/>
<path d="M142.349 234.597H133.298V243.616H142.349V234.597Z" fill="#595959"/>
<path d="M142.349 225.578H133.298V234.598H142.349V225.578Z" fill="#595959"/>
<path d="M142.349 216.558H133.298V225.577H142.349V216.558Z" fill="#595959"/>
<path d="M142.349 207.538H133.298V216.558H142.349V207.538Z" fill="#E1DBD4"/>
<path d="M142.349 189.5H133.298V198.519H142.349V189.5Z" fill="#595959"/>
<path d="M142.349 180.48H133.298V189.5H142.349V180.48Z" fill="#595959"/>
<path d="M142.349 171.462H133.298V180.481H142.349V171.462Z" fill="#595959"/>
<path d="M142.349 162.441H133.298V171.461H142.349V162.441Z" fill="#595959"/>
<path d="M142.349 153.422H133.298V162.441H142.349V153.422Z" fill="#595959"/>
<path d="M142.349 144.403H133.298V153.423H142.349V144.403Z" fill="#595959"/>
<path d="M142.349 135.384H133.298V144.403H142.349V135.384Z" fill="#595959"/>
<path d="M142.349 126.272H133.298V135.384H142.349V126.272Z" fill="#595959"/>
<path d="M142.349 117.253H133.298V126.272H142.349V117.253Z" fill="#595959"/>
<path d="M142.349 108.233H133.298V117.253H142.349V108.233Z" fill="#595959"/>
<path d="M142.349 99.2129H133.298V108.232H142.349V99.2129Z" fill="#E86526"/>
<path d="M142.349 90.1943H133.298V99.2138H142.349V90.1943Z" fill="#E86526"/>
<path d="M142.349 81.1748H133.298V90.1942H142.349V81.1748Z" fill="#E86526"/>
<path d="M142.349 72.1553H133.298V81.1747H142.349V72.1553Z" fill="#E86526"/>
<path d="M142.349 63.1367H133.298V72.1561H142.349V63.1367Z" fill="#E86526"/>
<path d="M142.349 54.1162H133.298V63.1356H142.349V54.1162Z" fill="#E86526"/>
<path d="M142.349 45.0967H133.298V54.1161H142.349V45.0967Z" fill="#E86526"/>
<path d="M142.349 36.0781H133.298V45.0976H142.349V36.0781Z" fill="#E86526"/>
<path d="M142.349 27.0586H133.298V36.078H142.349V27.0586Z" fill="#E86526"/>
<path d="M142.349 18.0381H133.298V27.0575H142.349V18.0381Z" fill="#E86526"/>
<path d="M142.349 9.01953H133.298V18.039H142.349V9.01953Z" fill="#E86526"/>
<path d="M133.298 351.85H124.248V360.961H133.298V351.85Z" fill="#E86526"/>
<path d="M133.298 342.831H124.248V351.85H133.298V342.831Z" fill="#E1DBD4"/>
<path d="M133.298 333.811H124.248V342.83H133.298V333.811Z" fill="#E1DBD4"/>
<path d="M133.298 324.791H124.248V333.81H133.298V324.791Z" fill="#E1DBD4"/>
<path d="M133.298 315.772H124.248V324.792H133.298V315.772Z" fill="#E1DBD4"/>
<path d="M133.298 306.753H124.248V315.772H133.298V306.753Z" fill="#E1DBD4"/>
<path d="M133.298 297.732H124.248V306.752H133.298V297.732Z" fill="#E1DBD4"/>
<path d="M133.298 288.714H124.248V297.733H133.298V288.714Z" fill="#E1DBD4"/>
<path d="M133.298 279.694H124.248V288.714H133.298V279.694Z" fill="#E1DBD4"/>
<path d="M133.298 270.675H124.248V279.694H133.298V270.675Z" fill="#E1DBD4"/>
<path d="M133.298 261.656H124.248V270.676H133.298V261.656Z" fill="#595959"/>
<path d="M133.298 252.636H124.248V261.655H133.298V252.636Z" fill="#595959"/>
<path d="M133.298 243.616H124.248V252.636H133.298V243.616Z" fill="#595959"/>
<path d="M133.298 234.597H124.248V243.616H133.298V234.597Z" fill="#595959"/>
<path d="M133.298 225.578H124.248V234.598H133.298V225.578Z" fill="#595959"/>
<path d="M133.298 216.558H124.248V225.577H133.298V216.558Z" fill="#E1DBD4"/>
<path d="M133.298 189.5H124.248V198.519H133.298V189.5Z" fill="#595959"/>
<path d="M133.298 180.48H124.248V189.5H133.298V180.48Z" fill="#595959"/>
<path d="M133.298 171.462H124.248V180.481H133.298V171.462Z" fill="#595959"/>
<path d="M133.298 162.441H124.248V171.461H133.298V162.441Z" fill="#595959"/>
<path d="M133.298 153.422H124.248V162.441H133.298V153.422Z" fill="#595959"/>
<path d="M133.298 144.403H124.248V153.423H133.298V144.403Z" fill="#595959"/>
<path d="M133.298 135.384H124.248V144.403H133.298V135.384Z" fill="#595959"/>
<path d="M133.298 126.272H124.248V135.384H133.298V126.272Z" fill="#595959"/>
<path d="M133.298 117.253H124.248V126.272H133.298V117.253Z" fill="#595959"/>
<path d="M133.298 108.233H124.248V117.253H133.298V108.233Z" fill="#595959"/>
<path d="M133.298 99.2129H124.248V108.232H133.298V99.2129Z" fill="#E86526"/>
<path d="M133.298 90.1943H124.248V99.2138H133.298V90.1943Z" fill="#E86526"/>
<path d="M133.298 81.1748H124.248V90.1942H133.298V81.1748Z" fill="#E86526"/>
<path d="M133.298 72.1553H124.248V81.1747H133.298V72.1553Z" fill="#E86526"/>
<path d="M133.298 63.1367H124.248V72.1561H133.298V63.1367Z" fill="#E86526"/>
<path d="M133.298 54.1162H124.248V63.1356H133.298V54.1162Z" fill="#E86526"/>
<path d="M133.298 45.0967H124.248V54.1161H133.298V45.0967Z" fill="#E86526"/>
<path d="M133.298 36.0781H124.248V45.0976H133.298V36.0781Z" fill="#E86526"/>
<path d="M133.298 27.0586H124.248V36.078H133.298V27.0586Z" fill="#E86526"/>
<path d="M133.298 18.0381H124.248V27.0575H133.298V18.0381Z" fill="#E86526"/>
<path d="M133.298 9.01953H124.248V18.039H133.298V9.01953Z" fill="#E86526"/>
<path d="M124.248 351.85H115.197V360.961H124.248V351.85Z" fill="#E1DBD4"/>
<path d="M124.248 342.831H115.197V351.85H124.248V342.831Z" fill="#E1DBD4"/>
<path d="M124.248 333.811H115.197V342.83H124.248V333.811Z" fill="#E1DBD4"/>
<path d="M124.248 324.791H115.197V333.81H124.248V324.791Z" fill="#E1DBD4"/>
<path d="M124.248 315.772H115.197V324.792H124.248V315.772Z" fill="#E1DBD4"/>
<path d="M124.248 306.753H115.197V315.772H124.248V306.753Z" fill="#E1DBD4"/>
<path d="M124.248 297.732H115.197V306.752H124.248V297.732Z" fill="#E1DBD4"/>
<path d="M124.248 288.714H115.197V297.733H124.248V288.714Z" fill="#E1DBD4"/>
<path d="M124.248 279.694H115.197V288.714H124.248V279.694Z" fill="#E1DBD4"/>
<path d="M124.248 270.675H115.197V279.694H124.248V270.675Z" fill="#E1DBD4"/>
<path d="M124.248 261.656H115.197V270.676H124.248V261.656Z" fill="#E1DBD4"/>
<path d="M124.248 252.636H115.197V261.655H124.248V252.636Z" fill="#595959"/>
<path d="M124.248 243.616H115.197V252.636H124.248V243.616Z" fill="#595959"/>
<path d="M124.248 234.597H115.197V243.616H124.248V234.597Z" fill="#595959"/>
<path d="M124.248 225.578H115.197V234.598H124.248V225.578Z" fill="#E1DBD4"/>
<path d="M124.248 189.5H115.197V198.519H124.248V189.5Z" fill="#595959"/>
<path d="M124.248 180.48H115.197V189.5H124.248V180.48Z" fill="#595959"/>
<path d="M124.248 171.462H115.197V180.481H124.248V171.462Z" fill="#595959"/>
<path d="M124.248 162.441H115.197V171.461H124.248V162.441Z" fill="#595959"/>
<path d="M124.248 153.422H115.197V162.441H124.248V153.422Z" fill="#595959"/>
<path d="M124.248 144.403H115.197V153.423H124.248V144.403Z" fill="#595959"/>
<path d="M124.248 135.384H115.197V144.403H124.248V135.384Z" fill="#595959"/>
<path d="M124.248 126.272H115.197V135.384H124.248V126.272Z" fill="#595959"/>
<path d="M124.248 117.253H115.197V126.272H124.248V117.253Z" fill="#595959"/>
<path d="M124.248 108.233H115.197V117.253H124.248V108.233Z" fill="#595959"/>
<path d="M124.248 99.2129H115.197V108.232H124.248V99.2129Z" fill="#E86526"/>
<path d="M124.248 90.1943H115.197V99.2138H124.248V90.1943Z" fill="#E86526"/>
<path d="M124.248 81.1748H115.197V90.1942H124.248V81.1748Z" fill="#595959"/>
<path d="M124.248 72.1553H115.197V81.1747H124.248V72.1553Z" fill="#595959"/>
<path d="M124.248 63.1367H115.197V72.1561H124.248V63.1367Z" fill="#595959"/>
<path d="M124.248 54.1162H115.197V63.1356H124.248V54.1162Z" fill="#595959"/>
<path d="M124.248 45.0967H115.197V54.1161H124.248V45.0967Z" fill="#E86526"/>
<path d="M124.248 36.0781H115.197V45.0976H124.248V36.0781Z" fill="#E86526"/>
<path d="M124.248 27.0586H115.197V36.078H124.248V27.0586Z" fill="#E86526"/>
<path d="M124.248 18.0381H115.197V27.0575H124.248V18.0381Z" fill="#E86526"/>
<path d="M124.248 9.01953H115.197V18.039H124.248V9.01953Z" fill="#E86526"/>
<path d="M115.197 351.85H106.147V360.961H115.197V351.85Z" fill="#E1DBD4"/>
<path d="M115.197 342.831H106.147V351.85H115.197V342.831Z" fill="#E1DBD4"/>
<path d="M115.197 333.811H106.147V342.83H115.197V333.811Z" fill="#E1DBD4"/>
<path d="M115.197 324.791H106.147V333.81H115.197V324.791Z" fill="#E1DBD4"/>
<path d="M115.197 315.772H106.147V324.792H115.197V315.772Z" fill="#E1DBD4"/>
<path d="M115.197 306.753H106.147V315.772H115.197V306.753Z" fill="#E1DBD4"/>
<path d="M115.197 297.732H106.147V306.752H115.197V297.732Z" fill="#E1DBD4"/>
<path d="M115.197 288.714H106.147V297.733H115.197V288.714Z" fill="#E1DBD4"/>
<path d="M115.197 279.694H106.147V288.714H115.197V279.694Z" fill="#E1DBD4"/>
<path d="M115.197 270.675H106.147V279.694H115.197V270.675Z" fill="#E1DBD4"/>
<path d="M115.197 261.656H106.147V270.676H115.197V261.656Z" fill="#E1DBD4"/>
<path d="M115.197 252.636H106.147V261.655H115.197V252.636Z" fill="#E1DBD4"/>
<path d="M115.197 243.616H106.147V252.636H115.197V243.616Z" fill="#E1DBD4"/>
<path d="M115.197 234.597H106.147V243.616H115.197V234.597Z" fill="#E1DBD4"/>
<path d="M115.197 180.48H106.147V189.5H115.197V180.48Z" fill="#595959"/>
<path d="M115.197 171.462H106.147V180.481H115.197V171.462Z" fill="#595959"/>
<path d="M115.197 162.441H106.147V171.461H115.197V162.441Z" fill="#595959"/>
<path d="M115.197 153.422H106.147V162.441H115.197V153.422Z" fill="#595959"/>
<path d="M115.197 144.403H106.147V153.423H115.197V144.403Z" fill="#595959"/>
<path d="M115.197 135.384H106.147V144.403H115.197V135.384Z" fill="#595959"/>
<path d="M115.197 126.272H106.147V135.384H115.197V126.272Z" fill="#595959"/>
<path d="M115.197 117.253H106.147V126.272H115.197V117.253Z" fill="#595959"/>
<path d="M115.197 108.233H106.147V117.253H115.197V108.233Z" fill="#595959"/>
<path d="M115.197 99.2129H106.147V108.232H115.197V99.2129Z" fill="#E86526"/>
<path d="M115.197 90.1943H106.147V99.2138H115.197V90.1943Z" fill="#E86526"/>
<path d="M115.197 81.1748H106.147V90.1942H115.197V81.1748Z" fill="#595959"/>
<path d="M115.197 72.1553H106.147V81.1747H115.197V72.1553Z" fill="#595959"/>
<path d="M115.197 63.1367H106.147V72.1561H115.197V63.1367Z" fill="#595959"/>
<path d="M115.197 54.1162H106.147V63.1356H115.197V54.1162Z" fill="#595959"/>
<path d="M115.197 45.0967H106.147V54.1161H115.197V45.0967Z" fill="#595959"/>
<path d="M115.197 36.0781H106.147V45.0976H115.197V36.0781Z" fill="#E86526"/>
<path d="M115.197 27.0586H106.147V36.078H115.197V27.0586Z" fill="#E86526"/>
<path d="M115.197 18.0381H106.147V27.0575H115.197V18.0381Z" fill="#E86526"/>
<path d="M115.197 9.01953H106.147V18.039H115.197V9.01953Z" fill="#E86526"/>
<path d="M106.147 351.85H97.0966V360.961H106.147V351.85Z" fill="#E1DBD4"/>
<path d="M106.147 342.831H97.0966V351.85H106.147V342.831Z" fill="#E1DBD4"/>
<path d="M106.147 333.811H97.0966V342.83H106.147V333.811Z" fill="#E1DBD4"/>
<path d="M106.147 324.791H97.0966V333.81H106.147V324.791Z" fill="#E1DBD4"/>
<path d="M106.147 315.772H97.0966V324.792H106.147V315.772Z" fill="#E1DBD4"/>
<path d="M106.147 306.753H97.0966V315.772H106.147V306.753Z" fill="#E1DBD4"/>
<path d="M106.147 297.732H97.0966V306.752H106.147V297.732Z" fill="#E1DBD4"/>
<path d="M106.147 288.714H97.0966V297.733H106.147V288.714Z" fill="#E1DBD4"/>
<path d="M106.147 279.694H97.0966V288.714H106.147V279.694Z" fill="#E1DBD4"/>
<path d="M106.147 270.675H97.0966V279.694H106.147V270.675Z" fill="#E1DBD4"/>
<path d="M106.147 261.656H97.0966V270.676H106.147V261.656Z" fill="#E1DBD4"/>
<path d="M106.147 252.636H97.0966V261.655H106.147V252.636Z" fill="#E1DBD4"/>
<path d="M106.147 243.616H97.0966V252.636H106.147V243.616Z" fill="#E1DBD4"/>
<path d="M106.147 162.441H97.0966V171.461H106.147V162.441Z" fill="#595959"/>
<path d="M106.147 153.422H97.0966V162.441H106.147V153.422Z" fill="#595959"/>
<path d="M106.147 144.403H97.0966V153.423H106.147V144.403Z" fill="#595959"/>
<path d="M106.147 135.384H97.0966V144.403H106.147V135.384Z" fill="#595959"/>
<path d="M106.147 126.272H97.0966V135.384H106.147V126.272Z" fill="#595959"/>
<path d="M106.147 117.253H97.0966V126.272H106.147V117.253Z" fill="#595959"/>
<path d="M106.147 108.233H97.0966V117.253H106.147V108.233Z" fill="#595959"/>
<path d="M106.147 99.2129H97.0966V108.232H106.147V99.2129Z" fill="#E86526"/>
<path d="M106.147 90.1943H97.0966V99.2138H106.147V90.1943Z" fill="#E86526"/>
<path d="M106.147 81.1748H97.0966V90.1942H106.147V81.1748Z" fill="#E86526"/>
<path d="M106.147 72.1553H97.0966V81.1747H106.147V72.1553Z" fill="#E86526"/>
<path d="M106.147 63.1367H97.0966V72.1561H106.147V63.1367Z" fill="#E86526"/>
<path d="M106.147 54.1162H97.0966V63.1356H106.147V54.1162Z" fill="#E86526"/>
<path d="M106.147 45.0967H97.0966V54.1161H106.147V45.0967Z" fill="#E86526"/>
<path d="M106.147 36.0781H97.0966V45.0976H106.147V36.0781Z" fill="#E86526"/>
<path d="M106.147 27.0586H97.0966V36.078H106.147V27.0586Z" fill="#E86526"/>
<path d="M106.147 18.0381H97.0966V27.0575H106.147V18.0381Z" fill="#E86526"/>
<path d="M106.147 9.01953H97.0966V18.039H106.147V9.01953Z" fill="#E86526"/>
<path d="M97.0966 351.85H88.0462V360.961H97.0966V351.85Z" fill="#E1DBD4"/>
<path d="M97.0966 342.831H88.0462V351.85H97.0966V342.831Z" fill="#E1DBD4"/>
<path d="M97.0966 333.811H88.0462V342.83H97.0966V333.811Z" fill="#E1DBD4"/>
<path d="M97.0966 324.791H88.0462V333.81H97.0966V324.791Z" fill="#E1DBD4"/>
<path d="M97.0966 315.772H88.0462V324.792H97.0966V315.772Z" fill="#E1DBD4"/>
<path d="M97.0966 306.753H88.0462V315.772H97.0966V306.753Z" fill="#E1DBD4"/>
<path d="M97.0966 297.732H88.0462V306.752H97.0966V297.732Z" fill="#E1DBD4"/>
<path d="M97.0966 288.714H88.0462V297.733H97.0966V288.714Z" fill="#E1DBD4"/>
<path d="M97.0966 279.694H88.0462V288.714H97.0966V279.694Z" fill="#E1DBD4"/>
<path d="M97.0966 270.675H88.0462V279.694H97.0966V270.675Z" fill="#E1DBD4"/>
<path d="M97.0966 261.656H88.0462V270.676H97.0966V261.656Z" fill="#E1DBD4"/>
<path d="M88.0462 351.85H78.9957V360.961H88.0462V351.85Z" fill="#E86526"/>
<path d="M88.0462 342.831H78.9957V351.85H88.0462V342.831Z" fill="#E86526"/>
<path d="M88.0462 333.811H78.9957V342.83H88.0462V333.811Z" fill="#E86526"/>
<path d="M88.0462 324.791H78.9957V333.81H88.0462V324.791Z" fill="#E86526"/>
<path d="M88.0462 315.772H78.9957V324.792H88.0462V315.772Z" fill="#E86526"/>
<path d="M78.9957 351.85H69.9453V360.961H78.9957V351.85Z" fill="#E86526"/>
<path d="M78.9957 342.831H69.9453V351.85H78.9957V342.831Z" fill="#E86526"/>
<path d="M78.9957 333.811H69.9453V342.83H78.9957V333.811Z" fill="#E86526"/>
<path d="M78.9957 324.791H69.9453V333.81H78.9957V324.791Z" fill="#E86526"/>
<path d="M78.9957 315.772H69.9453V324.792H78.9957V315.772Z" fill="#E86526"/>
<path d="M69.9453 351.85H60.8949V360.961H69.9453V351.85Z" fill="#E86526"/>
<path d="M69.9453 342.831H60.8949V351.85H69.9453V342.831Z" fill="#E86526"/>
<path d="M69.9453 333.811H60.8949V342.83H69.9453V333.811Z" fill="#E86526"/>
<path d="M69.9453 324.791H60.8949V333.81H69.9453V324.791Z" fill="#E86526"/>
<path d="M69.9453 315.772H60.8949V324.792H69.9453V315.772Z" fill="#E86526"/>
<path d="M60.8949 351.85H51.8445V360.961H60.8949V351.85Z" fill="#E86526"/>
<path d="M60.8949 342.831H51.8445V351.85H60.8949V342.831Z" fill="#E86526"/>
<path d="M60.8949 333.811H51.8445V342.83H60.8949V333.811Z" fill="#E86526"/>
<path d="M60.8949 324.791H51.8445V333.81H60.8949V324.791Z" fill="#E86526"/>
<path d="M60.8949 315.772H51.8445V324.792H60.8949V315.772Z" fill="#E86526"/>
<path d="M51.8445 351.85H42.7941V360.961H51.8445V351.85Z" fill="#E86526"/>
<path d="M51.8445 342.831H42.7941V351.85H51.8445V342.831Z" fill="#E86526"/>
<path d="M51.8445 333.811H42.7941V342.83H51.8445V333.811Z" fill="#E86526"/>
<path d="M51.8445 324.791H42.7941V333.81H51.8445V324.791Z" fill="#E86526"/>
<path d="M51.8445 315.772H42.7941V324.792H51.8445V315.772Z" fill="#E86526"/>
<path d="M42.794 360.961H33.7436V369.98H42.794V360.961Z" fill="#595959"/>
<path d="M42.794 351.85H33.7436V360.961H42.794V351.85Z" fill="#595959"/>
<path d="M42.794 342.831H33.7436V351.85H42.794V342.831Z" fill="#595959"/>
<path d="M42.794 333.811H33.7436V342.83H42.794V333.811Z" fill="#595959"/>
<path d="M42.794 324.791H33.7436V333.81H42.794V324.791Z" fill="#595959"/>
<path d="M42.794 315.772H33.7436V324.792H42.794V315.772Z" fill="#595959"/>
<path d="M33.7436 369.981H24.6932V379.001H33.7436V369.981Z" fill="#595959"/>
<path d="M33.7436 360.961H24.6932V369.98H33.7436V360.961Z" fill="#595959"/>
<path d="M33.7436 351.85H24.6932V360.961H33.7436V351.85Z" fill="#595959"/>
<path d="M33.7436 342.831H24.6932V351.85H33.7436V342.831Z" fill="#595959"/>
<path d="M33.7436 333.811H24.6932V342.83H33.7436V333.811Z" fill="#595959"/>
<path d="M33.7436 324.791H24.6932V333.81H33.7436V324.791Z" fill="#595959"/>
<path d="M33.7436 315.772H24.6932V324.792H33.7436V315.772Z" fill="#595959"/>
<path d="M24.6932 369.981H15.6428V379.001H24.6932V369.981Z" fill="#E1DBD4"/>
<path d="M24.6932 360.961H15.6428V369.98H24.6932V360.961Z" fill="#E1DBD4"/>
<path d="M24.6932 351.85H15.6428V360.961H24.6932V351.85Z" fill="#E1DBD4"/>
<path d="M24.6932 342.831H15.6428V351.85H24.6932V342.831Z" fill="#E1DBD4"/>
<path d="M24.6932 333.811H15.6428V342.83H24.6932V333.811Z" fill="#E1DBD4"/>
<path d="M24.6932 324.791H15.6428V333.81H24.6932V324.791Z" fill="#E1DBD4"/>
<path d="M24.6932 315.772H15.6428V324.792H24.6932V315.772Z" fill="#E1DBD4"/>
<path d="M15.6428 369.981H6.5V379.001H15.6428V369.981Z" fill="#595959"/>
<path d="M15.6428 360.961H6.5V369.98H15.6428V360.961Z" fill="#595959"/>
<path d="M15.6428 351.85H6.5V360.961H15.6428V351.85Z" fill="#595959"/>
<path d="M15.6428 342.831H6.5V351.85H15.6428V342.831Z" fill="#595959"/>
<path d="M15.6428 333.811H6.5V342.83H15.6428V333.811Z" fill="#595959"/>
<path d="M15.6428 324.791H6.5V333.81H15.6428V324.791Z" fill="#595959"/>
<path d="M15.6428 315.772H6.5V324.792H15.6428V315.772Z" fill="#595959"/>
<path d="M285.77 229.444L281.337 237.267L273.488 232.941L277.828 225.026L285.77 229.444Z" fill="#595959"/>
<path d="M281.337 237.267L276.997 245.182L269.055 240.764L273.488 232.941L281.337 237.267Z" fill="#595959"/>
<path d="M277.828 225.025L273.488 232.94L265.453 228.522L269.886 220.607L277.828 225.025Z" fill="#595959"/>
<path d="M269.034 240.856L264.623 248.731L272.526 253.128L276.937 245.252L269.034 240.856Z" fill="#595959"/>
<path d="M273.487 232.94L269.055 240.763L261.112 236.345L265.453 228.522L273.487 232.94Z" fill="#595959"/>
<path d="M269.886 220.608L265.453 228.523L257.603 224.105L261.944 216.19L269.886 220.608Z" fill="#595959"/>
<path d="M261.108 236.41L256.697 244.285L264.599 248.681L269.01 240.806L261.108 236.41Z" fill="#595959"/>
<path d="M265.453 228.523L261.112 236.346L253.17 232.02L257.603 224.105L265.453 228.523Z" fill="#595959"/>
<path d="M264.622 248.678L260.281 256.593L252.247 252.084L256.68 244.261L264.622 248.678Z" fill="#595959"/>
<path d="M261.112 236.346L256.68 244.261L248.737 239.843L253.17 232.021L261.112 236.346Z" fill="#595959"/>
<path d="M249.704 219.756L245.293 227.632L253.195 232.028L257.607 224.152L249.704 219.756Z" fill="#595959"/>
<path d="M256.68 244.26L252.247 252.083L244.397 247.758L248.737 239.843L256.68 244.26Z" fill="#595959"/>
<path d="M253.17 232.02L248.737 239.843L240.887 235.426L245.228 227.603L253.17 232.02Z" fill="#595959"/>
<path d="M248.737 239.842L244.397 247.757L236.455 243.34L240.887 235.425L248.737 239.842Z" fill="#595959"/>
<path d="M245.228 227.602L240.888 235.425L232.945 231.1L237.378 223.185L245.228 227.602Z" fill="#595959"/>
<path d="M244.397 247.758L239.964 255.581L232.022 251.256L236.455 243.341L244.397 247.758Z" fill="#595959"/>
<path d="M240.888 235.425L236.455 243.34L228.513 238.923L232.945 231.1L240.888 235.425Z" fill="#595959"/>
<path d="M236.455 243.341L232.022 251.256L224.172 246.838L228.513 238.923L236.455 243.341Z" fill="#595959"/>
<path d="M232.945 231.099L228.512 238.922L220.663 234.597L225.003 226.682L232.945 231.099Z" fill="#595959"/>
<path d="M232.022 251.256L227.681 259.079L219.739 254.753L224.172 246.838L232.022 251.256Z" fill="#595959"/>
<path d="M228.512 238.922L224.172 246.837L216.23 242.42L220.663 234.597L228.512 238.922Z" fill="#595959"/>
<path d="M225.003 226.682L220.663 234.597L212.72 230.18L217.153 222.265L225.003 226.682Z" fill="#595959"/>
<path d="M216.294 242.442L211.883 250.317L219.786 254.713L224.197 246.838L216.294 242.442Z" fill="#595959"/>
<path d="M220.663 234.597L216.23 242.42L208.287 238.095L212.72 230.18L220.663 234.597Z" fill="#595959"/>
<path d="M219.739 254.753L215.306 262.576L207.456 258.158L211.797 250.335L219.739 254.753Z" fill="#595959"/>
<path d="M216.23 242.42L211.797 250.335L203.947 245.918L208.288 238.095L216.23 242.42Z" fill="#595959"/>
<path d="M212.72 230.18L208.288 238.095L200.438 233.678L204.871 225.763L212.72 230.18Z" fill="#595959"/>
<path d="M211.797 250.335L207.456 258.158L199.514 253.832L203.947 245.917L211.797 250.335Z" fill="#595959"/>
<path d="M208.288 238.094L203.947 245.917L196.005 241.5L200.438 233.677L208.288 238.094Z" fill="#595959"/>
<path d="M207.456 258.158L203.024 266.073L195.081 261.655L199.514 253.832L207.456 258.158Z" fill="#595959"/>
<path d="M196.026 241.553L191.615 249.429L199.517 253.825L203.929 245.949L196.026 241.553Z" fill="#595959"/>
<path d="M200.438 233.676L196.005 241.499L188.155 237.174L192.495 229.259L200.438 233.676Z" fill="#595959"/>
<path d="M199.514 253.833L195.081 261.656L187.231 257.33L191.572 249.415L199.514 253.833Z" fill="#595959"/>
<path d="M196.005 241.499L191.572 249.414L183.722 244.997L188.155 237.174L196.005 241.499Z" fill="#595959"/>
<path d="M195.081 261.656L190.741 269.571L182.799 265.153L187.231 257.33L195.081 261.656Z" fill="#595959"/>
<path d="M191.572 249.414L187.231 257.329L179.289 252.911L183.722 244.996L191.572 249.414Z" fill="#595959"/>
<path d="M188.155 237.175L183.722 244.997L175.78 240.672L180.213 232.757L188.155 237.175Z" fill="#595959"/>
<path d="M187.231 257.331L182.799 265.154L174.856 260.828L179.289 252.913L187.231 257.331Z" fill="#595959"/>
<path d="M183.722 244.998L179.289 252.913L171.439 248.495L175.78 240.672L183.722 244.998Z" fill="#595959"/>
<path d="M182.799 265.153L178.366 273.068L170.516 268.65L174.856 260.827L182.799 265.153Z" fill="#595959"/>
<path d="M180.213 232.756L175.78 240.671L167.93 236.253L172.27 228.338L180.213 232.756Z" fill="#595959"/>
<path d="M179.289 252.912L174.856 260.827L167.007 256.409L171.439 248.494L179.289 252.912Z" fill="#595959"/>
<path d="M178.366 273.068L174.025 280.891L166.083 276.565L170.516 268.65L178.366 273.068Z" fill="#595959"/>
<path d="M175.78 240.671L171.439 248.494L163.497 244.168L167.93 236.253L175.78 240.671Z" fill="#595959"/>
<path d="M174.856 260.827L170.516 268.65L162.574 264.232L167.006 256.409L174.856 260.827Z" fill="#595959"/>
<path d="M172.271 228.339L167.93 236.254L159.988 231.837L164.421 224.014L172.271 228.339Z" fill="#595959"/>
<path d="M171.439 248.495L167.007 256.41L159.064 251.992L163.497 244.169L171.439 248.495Z" fill="#595959"/>
<path d="M162.616 264.33L158.205 272.206L166.108 276.602L170.519 268.727L162.616 264.33Z" fill="#595959"/>
<path d="M160.03 231.923L155.619 239.799L163.522 244.195L167.933 236.319L160.03 231.923Z" fill="#595959"/>
<path d="M167.006 256.41L162.574 264.233L154.724 259.907L159.064 251.992L167.006 256.41Z" fill="#595959"/>
<path d="M166.083 276.564L161.65 284.387L153.8 280.062L158.141 272.146L166.083 276.564Z" fill="#595959"/>
<path d="M164.421 224.012L159.988 231.835L152.046 227.51L156.478 219.595L164.421 224.012Z" fill="#595959"/>
<path d="M163.497 244.169L159.064 251.992L151.214 247.574L155.555 239.751L163.497 244.169Z" fill="#595959"/>
<path d="M162.574 264.233L158.141 272.148L150.291 267.73L154.724 259.907L162.574 264.233Z" fill="#595959"/>
<path d="M159.988 231.835L155.555 239.75L147.705 235.333L152.046 227.51L159.988 231.835Z" fill="#595959"/>
<path d="M159.064 251.992L154.724 259.907L146.782 255.489L151.214 247.574L159.064 251.992Z" fill="#595959"/>
<path d="M158.141 272.147L153.8 280.062L145.858 275.645L150.291 267.729L158.141 272.147Z" fill="#595959"/>
<path d="M156.478 219.595L152.046 227.51L144.196 223.093L148.629 215.178L156.478 219.595Z" fill="#595959"/>
<path d="M155.555 239.752L151.214 247.575L143.272 243.249L147.705 235.334L155.555 239.752Z" fill="#595959"/>
<path d="M154.724 259.906L150.291 267.729L142.349 263.403L146.782 255.488L154.724 259.906Z" fill="#595959"/>
<path d="M152.046 227.51L147.705 235.333L139.763 230.916L144.196 223.093L152.046 227.51Z" fill="#595959"/>
<path d="M151.214 247.575L146.782 255.49L138.839 251.072L143.272 243.249L151.214 247.575Z" fill="#595959"/>
<path d="M150.291 267.729L145.858 275.644L138.008 271.226L142.349 263.403L150.291 267.729Z" fill="#595959"/>
<path d="M139.761 230.943L135.35 238.818L143.253 243.214L147.664 235.339L139.761 230.943Z" fill="#595959"/>
<path d="M146.782 255.489L142.349 263.404L134.499 258.986L138.839 251.071L146.782 255.489Z" fill="#595959"/>
<path d="M144.196 223.093L139.763 230.916L131.913 226.591L136.254 218.676L144.196 223.093Z" fill="#595959"/>
<path d="M143.272 243.248L138.839 251.071L130.99 246.745L135.33 238.83L143.272 243.248Z" fill="#595959"/>
<path d="M142.349 263.404L138.008 271.227L130.066 266.901L134.499 258.986L142.349 263.404Z" fill="#595959"/>
<path d="M139.763 230.916L135.33 238.831L127.48 234.414L131.913 226.591L139.763 230.916Z" fill="#595959"/>
<path d="M138.839 251.071L134.499 258.986L126.557 254.568L130.989 246.745L138.839 251.071Z" fill="#595959"/>
<path d="M135.33 238.831L130.99 246.746L123.047 242.328L127.48 234.413L135.33 238.831Z" fill="#595959"/>
<path d="M126.621 254.608L122.209 262.483L130.112 266.879L134.523 259.004L126.621 254.608Z" fill="#595959"/>
<path d="M130.99 246.746L126.557 254.569L118.614 250.243L123.047 242.328L130.99 246.746Z" fill="#595959"/>
<path d="M126.557 254.569L122.124 262.484L114.274 258.066L118.614 250.243L126.557 254.569Z" fill="#595959"/>
</g>
<defs>
<filter id="filter0_d_20_5554" x="0.5" y="0" width="332" height="383.001" filterUnits="userSpaceOnUse" color-interpolation-filters="sRGB">
<feFlood flood-opacity="0" result="BackgroundImageFix"/>
<feColorMatrix in="SourceAlpha" type="matrix" values="0 0 0 0 0 0 0 0 0 0 0 0 0 0 0 0 0 0 127 0" result="hardAlpha"/>
<feOffset dx="-6" dy="4"/>
<feComposite in2="hardAlpha" operator="out"/>
<feColorMatrix type="matrix" values="0 0 0 0 0 0 0 0 0 0 0 0 0 0 0 0 0 0 0.25 0"/>
<feBlend mode="normal" in2="BackgroundImageFix" result="effect1_dropShadow_20_5554"/>
<feBlend mode="normal" in="SourceGraphic" in2="effect1_dropShadow_20_5554" result="shape"/>
</filter>
</defs>
</svg>
